# xmcd
#
# Track frame offsets:
#	150
#	5755
#	18531
#	31555
#	57652
#	87880
#	115194
#	137165
#	153912
#	171134
#	201375
#	214362
#	247221
#	269842
#	299137
#
# Disc length: 4368 seconds
#
# Revision: 0
# Processed by: cddbd v1.5.2PL0 Copyright (c) Steve Scherf et al.
# Submitted via: dBpowerAMP V4.0
#
DISCID=ec110e0f
DTITLE=abdifatah - Somali
DYEAR=1900
DGENRE=
TTITLE0=aniga
TTITLE1=wariiri
TTITLE2=ajasha
TTITLE3=ma i
TTITLE4=isii
TTITLE5=hooo
TTITLE6=saas
TTITLE7=waa
TTITLE8=anigaaa
TTITLE9=adiga
TTITLE10=adigaaaa
TTITLE11=isagaa
TTITLE12=nafta
TTITLE13=jaceyl
TTITLE14=hoesje
EXTD=Jambo\n
EXTT0=
EXTT1=
EXTT2=
EXTT3=
EXTT4=
EXTT5=
EXTT6=
EXTT7=
EXTT8=
EXTT9=
EXTT10=
EXTT11=
EXTT12=
EXTT13=
EXTT14=
PLAYORDER=
